<?xml version="1.0" encoding="UTF-8" standalone="no"?>
<!-- Created with Inkscape (http://www.inkscape.org/) -->

<svg
   xmlns:dc="http://purl.org/dc/elements/1.1/"
   xmlns:cc="http://creativecommons.org/ns#"
   xmlns:rdf="http://www.w3.org/1999/02/22-rdf-syntax-ns#"
   xmlns:svg="http://www.w3.org/2000/svg"
   xmlns="http://www.w3.org/2000/svg"
   xmlns:sodipodi="http://sodipodi.sourceforge.net/DTD/sodipodi-0.dtd"
   xmlns:inkscape="http://www.inkscape.org/namespaces/inkscape"
   width="512"
   height="512"
   viewBox="0 0 135.46666 135.46667"
   version="1.1"
   id="svg8"
   inkscape:version="0.92.4 (unknown)"
   sodipodi:docname="launcher.svg">
  <defs
     id="defs2" />
  <sodipodi:namedview
     id="base"
     pagecolor="#ffffff"
     bordercolor="#666666"
     borderopacity="1.0"
     inkscape:pageopacity="0.0"
     inkscape:pageshadow="2"
     inkscape:zoom="0.175"
     inkscape:cx="53.854677"
     inkscape:cy="-122.37858"
     inkscape:document-units="px"
     inkscape:current-layer="layer1"
     showgrid="false"
     units="px"
     inkscape:window-width="1024"
     inkscape:window-height="543"
     inkscape:window-x="0"
     inkscape:window-y="0"
     inkscape:window-maximized="1" />
  <metadata
     id="metadata5">
    <rdf:RDF>
      <cc:Work
         rdf:about="">
        <dc:format>image/svg+xml</dc:format>
        <dc:type
           rdf:resource="http://purl.org/dc/dcmitype/StillImage" />
        <dc:title></dc:title>
      </cc:Work>
    </rdf:RDF>
  </metadata>
  <g
     inkscape:label="Capa 1"
     inkscape:groupmode="layer"
     id="layer1"
     transform="translate(0,-161.53331)">
    <circle
       style="fill:#8bb940;stroke-width:0.99999368"
       cx="11.117537"
       cy="91.976776"
       r="0"
       id="ellipse1379" />
    <circle
       style="fill:#8bb940;stroke-width:0.99999368"
       cx="30.875412"
       cy="131.31651"
       r="0"
       id="ellipse1381" />
    <g
       id="g1467"
       transform="translate(157.64293,-3.0238036)"
       inkscape:export-xdpi="96"
       inkscape:export-ydpi="96">
      <rect
         y="164.55711"
         x="-157.64293"
         height="135.46666"
         width="135.46666"
         id="rect1366"
         style="opacity:1;fill:#8bb940;fill-opacity:1;stroke:none;stroke-width:1.03367639;stroke-miterlimit:4;stroke-dasharray:none;stroke-opacity:1" />
      <path
         id="path1383"
         d="m -47.09641,276.97925 h -44.143717 -44.143703 l 44.143703,-88.36088 22.07256,44.18044 z"
         inkscape:connector-curvature="0"
         style="fill:none;stroke:#ffffff;stroke-width:1.77030134;stroke-opacity:1" />
      <circle
         r="7.302165"
         id="circle1385"
         cy="276.46942"
         cx="-47.197453"
         style="fill:#ffffff;stroke-width:2.23028159" />
      <circle
         r="7.302165"
         id="circle1387"
         cy="276.46942"
         cx="-134.34013"
         style="fill:#ffffff;stroke-width:2.23028159" />
      <circle
         r="7.302165"
         id="circle1391"
         cy="189.377"
         cx="-91.278976"
         style="fill:#ffffff;stroke-width:2.23028159" />
      <path
         style="fill:#ffffff;stroke-width:0.06873231"
         inkscape:connector-curvature="0"
         d="m -106.54126,259.45693 c 0,1.21656 0.98288,2.19943 2.19944,2.19943 h 10.997174 v -10.99719 h -13.196614 z m 17.595482,2.19943 h 10.997173 c 1.216553,0 2.199435,-0.98287 2.199435,-2.19943 v -8.79776 h -13.196608 z m 13.196608,-21.99435 h -2.893632 c 0.426143,-0.83166 0.694197,-1.75268 0.694197,-2.74929 0,-3.33351 -2.714925,-6.04845 -6.048454,-6.04845 -2.859262,0 -4.708159,1.46401 -7.079423,4.69442 -2.371263,-3.23041 -4.220163,-4.69442 -7.079422,-4.69442 -3.333526,0 -6.048456,2.71494 -6.048456,6.04845 0,0.99661 0.26119,1.91763 0.6942,2.74929 h -3.0311 c -1.21656,0 -2.19942,0.98286 -2.19942,2.19942 v 5.4986 c 0,0.60485 0.49486,1.09971 1.09971,1.09971 h 32.99151 c 0.604852,0 1.099712,-0.49486 1.099712,-1.09971 v -5.4986 c 0,-1.21656 -0.982869,-2.19942 -2.199422,-2.19942 z m -22.413612,0 c -1.51899,0 -2.749298,-1.2303 -2.749298,-2.74929 0,-1.51899 1.230308,-2.74929 2.749298,-2.74929 1.367778,0 2.378142,0.22683 5.917846,5.49858 z m 14.165723,0 h -5.917847 c 3.532842,-5.25802 4.515711,-5.49858 5.917847,-5.49858 1.518991,0 2.749296,1.2303 2.749296,2.74929 0,1.51899 -1.230305,2.74929 -2.749296,2.74929 z"
         id="path1450" />
    </g>
  </g>
</svg>
